<svg width="59" height="59" viewBox="0 0 59 59" fill="none" xmlns="http://www.w3.org/2000/svg">
<path d="M0 16.9278C0 7.57883 7.57884 0 16.9278 0H41.1105C50.4595 0 58.0383 7.57884 58.0383 16.9278V41.1105C58.0383 50.4595 50.4594 58.0383 41.1105 58.0383H16.9278C7.57883 58.0383 0 50.4594 0 41.1105V16.9278Z" fill="#4084E2" fill-opacity="0.1"/>
<path d="M29.0191 21.3527C38.546 21.3527 46.2691 18.7783 46.2691 15.6027C46.2691 12.427 38.546 9.85266 29.0191 9.85266C19.4922 9.85266 11.7691 12.427 11.7691 15.6027C11.7691 18.7783 19.4922 21.3527 29.0191 21.3527Z" stroke="#4084E2" stroke-width="3" stroke-linecap="round" stroke-linejoin="round"/>
<path d="M11.7691 15.6027V42.436C11.7691 43.961 13.5865 45.4235 16.8215 46.5019C20.0565 47.5802 24.4441 48.186 29.0191 48.186C33.5941 48.186 37.9817 47.5802 41.2167 46.5019C44.4517 45.4235 46.2691 43.961 46.2691 42.436V15.6027" stroke="#4084E2" stroke-width="3" stroke-linecap="round" stroke-linejoin="round"/>
<path d="M11.7691 29.0192C11.7691 30.5442 13.5865 32.0067 16.8215 33.085C20.0565 34.1634 24.4441 34.7692 29.0191 34.7692C33.5941 34.7692 37.9817 34.1634 41.2167 33.085C44.4517 32.0067 46.2691 30.5442 46.2691 29.0192" stroke="#4084E2" stroke-width="3" stroke-linecap="round" stroke-linejoin="round"/>
</svg>
