<svg width="46" height="46" viewBox="0 0 46 46" fill="none" xmlns="http://www.w3.org/2000/svg">
<path d="M22.9999 15.3335C32.5269 15.3335 40.2499 12.7591 40.2499 9.5835C40.2499 6.40786 32.5269 3.8335 22.9999 3.8335C13.473 3.8335 5.74994 6.40786 5.74994 9.5835C5.74994 12.7591 13.473 15.3335 22.9999 15.3335Z" stroke="#4084E2" stroke-width="3" stroke-linecap="round" stroke-linejoin="round"/>
<path d="M5.74994 9.5835V36.4168C5.74994 37.9418 7.56734 39.4044 10.8023 40.4827C14.0373 41.561 18.425 42.1668 22.9999 42.1668C27.5749 42.1668 31.9625 41.561 35.1975 40.4827C38.4325 39.4044 40.2499 37.9418 40.2499 36.4168V9.5835" stroke="#4084E2" stroke-width="3" stroke-linecap="round" stroke-linejoin="round"/>
<path d="M5.74994 23C5.74994 24.525 7.56734 25.9875 10.8023 27.0659C14.0373 28.1442 18.425 28.75 22.9999 28.75C27.5749 28.75 31.9625 28.1442 35.1975 27.0659C38.4325 25.9875 40.2499 24.525 40.2499 23" stroke="#4084E2" stroke-width="3" stroke-linecap="round" stroke-linejoin="round"/>
</svg>
