<svg width="59" height="59" viewBox="0 0 59 59" fill="none" xmlns="http://www.w3.org/2000/svg">
<path d="M0 16.9278C0 7.57884 7.57885 0 16.9278 0H41.1105C50.4594 0 58.0383 7.57885 58.0383 16.9278V41.1105C58.0383 50.4594 50.4594 58.0383 41.1104 58.0383H16.9278C7.57884 58.0383 0 50.4594 0 41.1104V16.9278Z" fill="#4084E2" fill-opacity="0.1"/>
<path d="M9.9713 29.6864C9.81157 29.256 9.81157 28.7827 9.9713 28.3524C11.5271 24.5801 14.1679 21.3547 17.5589 19.0851C20.95 16.8155 24.9386 15.6039 29.0191 15.6039C33.0996 15.6039 37.0883 16.8155 40.4793 19.0851C43.8704 21.3547 46.5112 24.5801 48.067 28.3524C48.2267 28.7827 48.2267 29.256 48.067 29.6864C46.5112 33.4586 43.8704 36.684 40.4793 38.9536C37.0883 41.2233 33.0996 42.4349 29.0191 42.4349C24.9386 42.4349 20.95 41.2233 17.5589 38.9536C14.1679 36.684 11.5271 33.4586 9.9713 29.6864Z" stroke="#4084E2" stroke-width="3" stroke-linecap="round" stroke-linejoin="round"/>
<path d="M29.0192 34.769C32.1948 34.769 34.7692 32.1947 34.7692 29.019C34.7692 25.8434 32.1948 23.269 29.0192 23.269C25.8435 23.269 23.2692 25.8434 23.2692 29.019C23.2692 32.1947 25.8435 34.769 29.0192 34.769Z" stroke="#4084E2" stroke-width="3" stroke-linecap="round" stroke-linejoin="round"/>
</svg>
