<svg width="46" height="46" viewBox="0 0 46 46" fill="none" xmlns="http://www.w3.org/2000/svg">
<path d="M3.95217 23.6672C3.79243 23.2369 3.79243 22.7635 3.95217 22.3332C5.50793 18.5609 8.14874 15.3355 11.5398 13.0659C14.9309 10.7963 18.9195 9.58472 23 9.58472C27.0805 9.58472 31.0691 10.7963 34.4602 13.0659C37.8513 15.3355 40.4921 18.5609 42.0478 22.3332C42.2076 22.7635 42.2076 23.2369 42.0478 23.6672C40.4921 27.4395 37.8513 30.6649 34.4602 32.9345C31.0691 35.2041 27.0805 36.4157 23 36.4157C18.9195 36.4157 14.9309 35.2041 11.5398 32.9345C8.14874 30.6649 5.50793 27.4395 3.95217 23.6672Z" stroke="#4084E2" stroke-width="3" stroke-linecap="round" stroke-linejoin="round"/>
<path d="M23 28.7499C26.1757 28.7499 28.75 26.1755 28.75 22.9999C28.75 19.8242 26.1757 17.2499 23 17.2499C19.8244 17.2499 17.25 19.8242 17.25 22.9999C17.25 26.1755 19.8244 28.7499 23 28.7499Z" stroke="#4084E2" stroke-width="3" stroke-linecap="round" stroke-linejoin="round"/>
</svg>
