<svg width="53" height="53" viewBox="0 0 53 53" fill="none" xmlns="http://www.w3.org/2000/svg">
<g filter="url(#filter0_d_139_241)">
<g clip-path="url(#clip0_139_241)">
<path fill-rule="evenodd" clip-rule="evenodd" d="M26.5186 0C14.0664 0 4 10.1406 4 22.6859C4 32.7141 10.4499 41.2027 19.3976 44.2071C20.5163 44.4329 20.9261 43.719 20.9261 43.1184C20.9261 42.5924 20.8892 40.7897 20.8892 38.9114C14.6251 40.2638 13.3206 36.2071 13.3206 36.2071C12.3139 33.5779 10.8223 32.9021 10.8223 32.9021C8.77208 31.5124 10.9717 31.5124 10.9717 31.5124C13.2459 31.6627 14.4393 33.8411 14.4393 33.8411C16.4522 37.2963 19.6958 36.32 21.0007 35.7189C21.187 34.2541 21.7839 33.24 22.4177 32.6767C17.4216 32.1508 12.165 30.1978 12.165 21.4838C12.165 19.0049 13.0593 16.9768 14.4762 15.3994C14.2526 14.8362 13.4695 12.5071 14.7002 9.38975C14.7002 9.38975 16.6016 8.78869 20.8887 11.7184C22.7242 11.2218 24.6171 10.9692 26.5186 10.9671C28.42 10.9671 30.3582 11.2303 32.148 11.7184C36.4357 8.78869 38.337 9.38975 38.337 9.38975C39.5677 12.5071 38.7841 14.8362 38.5606 15.3994C40.0149 16.9768 40.8722 19.0049 40.8722 21.4838C40.8722 30.1978 35.6157 32.113 30.5822 32.6767C31.4027 33.3903 32.1107 34.7422 32.1107 36.8833C32.1107 39.9254 32.0738 42.367 32.0738 43.1179C32.0738 43.719 32.4841 44.4329 33.6023 44.2075C42.55 41.2022 48.9999 32.7141 48.9999 22.6859C49.0368 10.1406 38.9335 0 26.5186 0Z" fill="url(#paint0_linear_139_241)"/>
</g>
</g>
<defs>
<filter id="filter0_d_139_241" x="0" y="0" width="53" height="53" filterUnits="userSpaceOnUse" color-interpolation-filters="sRGB">
<feFlood flood-opacity="0" result="BackgroundImageFix"/>
<feColorMatrix in="SourceAlpha" type="matrix" values="0 0 0 0 0 0 0 0 0 0 0 0 0 0 0 0 0 0 127 0" result="hardAlpha"/>
<feOffset dy="4"/>
<feGaussianBlur stdDeviation="2"/>
<feComposite in2="hardAlpha" operator="out"/>
<feColorMatrix type="matrix" values="0 0 0 0 0 0 0 0 0 0 0 0 0 0 0 0 0 0 0.25 0"/>
<feBlend mode="normal" in2="BackgroundImageFix" result="effect1_dropShadow_139_241"/>
<feBlend mode="normal" in="SourceGraphic" in2="effect1_dropShadow_139_241" result="shape"/>
</filter>
<linearGradient id="paint0_linear_139_241" x1="4" y1="22.1251" x2="49" y2="22.1251" gradientUnits="userSpaceOnUse">
<stop stop-color="#1C2736"/>
<stop offset="1" stop-color="#315F9F"/>
</linearGradient>
<clipPath id="clip0_139_241">
<rect width="45" height="45" fill="white" transform="translate(4)"/>
</clipPath>
</defs>
</svg>
